{"title":"Maze Runner Scorch Trials (2015) 720p Blurred Subtitles-BDM","uid":12685584,"size":2067846854,"categoryP":"video","categoryS":"movies","magnet":"?xt=urn:btih:e764f202148e3b6ce256d3b01199659a1c6d8e6d&amp;dn=Maze+Runner+Scorch+Trials+%282015%29+720p+Blurred+Subtitles-BDM&amp;tr=udp%3A%2F%2Ftracker.leechers-paradise.org%3A6969&amp;tr=udp%3A%2F%2Fzer0day.ch%3A1337&amp;tr=udp%3A%2F%2Fopen.demonii.com%3A1337&amp;tr=udp%3A%2F%2Ftracker.coppersurfer.tk%3A6969&amp;tr=udp%3A%2F%2Fexodus.desync.com%3A6969","seeders":0,"leechers":0,"uploader":"BigDogMoya","files":2,"time":1446600610,"description":"I would like to thank the original up-loaders for their time and effort uploading these movies! It is much appreciated.\r\nSource File: Maze.Runner-Scorch.Trials.2015.720p.x264.AAC-Olleh.mp4\r\n\r\n\r\nIMDB Link:\r\n \nhttp://www.imdb.com/title/tt4046784/\r\n\r\n\r\nMedia Info:\r\n\r\nVideo\r\nID                          : 1\r\nFormat                      : AVC\r\nFormat/Info                 : Advanced Video Codec\r\nFormat profile              : High   \r\nFormat settings, CABAC      : Yes\r\nFormat settings, ReFrames   : 4 frames\r\nCodec ID                    : avc1\r\nCodec ID/Info               : Advanced Video Coding\r\nDuration                    : 2h 11mn\r\nBit rate                    : 1 952 Kbps\r\nMaximum bit rate            : 5 941 Kbps\r\nWidth                       : 1 280 pixels\r\nHeight                      : 720 pixels\r\nDisplay aspect ratio        : 16:9\r\nFrame rate mode             : Constant\r\nFrame rate                  : 29.970 fps\r\nColor space                 : YUV\r\nChroma subsampling          : 4:2:0\r\nBit depth                   : 10 bits\r\nScan type                   : Progressive\r\nBits/(Pixel*Frame)          : 0.071\r\nStream size                 : 1.79 GiB (94%)\r\nWriting library             : x264 core 146 r2538kMod 121396c\r\n\r\nAudio\r\nID                          : 2\r\nFormat                      : AAC\r\nFormat/Info                 : Advanced Audio Codec\r\nFormat profile              : LC\r\nCodec ID                    : 40\r\nDuration                    : 2h 11mn\r\nBit rate mode               : Variable\r\nBit rate                    : 127 Kbps\r\nChannel(s)                  : 2 channels\r\nChannel positions           : Front: L R\r\nSampling rate               : 48.0 KHz\r\nCompression mode            : Lossy\r\nStream size                 : 119 MiB (6%)\r\n\r\n\r\nScreen Shots:\r\n  \nhttp://i.imgur.com/40llm7J.png\r\n  \nhttp://i.imgur.com/4MrurYN.png\r\n  \nhttp://i.imgur.com/aCgCOWb.png\r\n  \nhttp://i.imgur.com/gU76mlT.png\r\n  \nhttp://i.imgur.com/WPVY8Id.png\r\n\r\n\r\nAlso included a sample, enjoy.\t\t\r\n\r\n\r\nTutorial on how I blur subtitles here.\r\n  \nhttps://pirates-forum.org/Thread-How-To-Blur-Subtitles-Like-a-Pro-The-Easy-Way","torrent":{"xt":"urn:btih:e764f202148e3b6ce256d3b01199659a1c6d8e6d","amp;dn":"Maze+Runner+Scorch+Trials+%282015%29+720p+Blurred+Subtitles-BDM","amp;tr":["udp%3A%2F%2Ftracker.leechers-paradise.org%3A6969","udp%3A%2F%2Fzer0day.ch%3A1337","udp%3A%2F%2Fopen.demonii.com%3A1337","udp%3A%2F%2Ftracker.coppersurfer.tk%3A6969","udp%3A%2F%2Fexodus.desync.com%3A6969"],"infoHash":"e764f202148e3b6ce256d3b01199659a1c6d8e6d","infoHashBuffer":{"type":"Buffer","data":[231,100,242,2,20,142,59,108,226,86,211,176,17,153,101,154,28,109,142,109]},"announce":[],"urlList":[]}}